<svg width="48" height="60" viewBox="0 0 48 60" fill="none" xmlns="http://www.w3.org/2000/svg">
<path d="M1.752 50.78C2.22 50.804 2.532 50.804 2.82 50.804C3.456 50.804 8.676 50.804 9.264 50.804C9.516 50.804 9.948 50.804 10.32 50.792C10.296 51.08 10.296 51.416 10.296 51.716C10.296 52.28 10.296 57.176 10.296 57.632C10.296 58.016 10.308 58.952 10.32 59.084H9.276C9.288 58.952 9.3 58.268 9.3 57.764C9.3 57.32 9.3 51.752 9.3 51.752H2.748C2.748 51.752 2.748 57.272 2.748 57.764C2.748 58.16 2.76 58.928 2.76 59.084H1.74C1.74 58.928 1.764 58.052 1.764 57.632C1.764 57.14 1.764 52.184 1.764 51.716C1.764 51.44 1.764 51.08 1.752 50.78ZM9.696 57.464V58.4H2.268V57.464H9.696ZM21.18 49.4C21.48 49.832 21.912 50.564 22.152 51.044L21.504 51.344C21.264 50.852 20.856 50.132 20.532 49.676L21.18 49.4ZM22.488 48.92C22.812 49.364 23.268 50.108 23.496 50.552L22.848 50.84C22.584 50.324 22.2 49.64 21.864 49.196L22.488 48.92ZM21.972 51.788C21.876 51.968 21.756 52.244 21.696 52.436C21.372 53.636 20.628 55.268 19.572 56.564C18.48 57.896 17.04 59 14.784 59.828L13.92 59.048C16.128 58.4 17.616 57.308 18.708 56.036C19.644 54.932 20.376 53.384 20.628 52.292H16.176L16.56 51.428C17.052 51.428 20.016 51.428 20.388 51.428C20.712 51.428 20.976 51.392 21.18 51.308L21.972 51.788ZM17.952 49.976C17.76 50.288 17.544 50.696 17.424 50.924C16.716 52.244 15.456 53.96 13.536 55.244L12.696 54.62C14.772 53.384 15.948 51.644 16.476 50.564C16.596 50.36 16.776 49.916 16.848 49.616L17.952 49.976ZM25.032 54.668C27.108 54.116 28.932 53.264 30.264 52.436C31.524 51.644 32.724 50.612 33.552 49.604L34.356 50.36C33.324 51.428 32.064 52.436 30.66 53.312C29.34 54.128 27.432 55.004 25.5 55.604L25.032 54.668ZM30.072 52.928L31.104 52.616V58.1C31.104 58.544 31.128 59.144 31.188 59.372H30C30.036 59.144 30.072 58.544 30.072 58.1V52.928ZM38.724 50.216C39.564 50.78 41.112 52.028 41.772 52.688L41.028 53.456C40.416 52.832 38.928 51.536 38.028 50.948L38.724 50.216ZM37.692 58.256C39.78 57.944 41.34 57.212 42.48 56.504C44.34 55.34 45.792 53.564 46.488 52.076L47.064 53.108C46.248 54.596 44.856 56.228 43.044 57.368C41.832 58.124 40.32 58.868 38.316 59.24L37.692 58.256Z" fill="#7F5539"/>
<path d="M21.1429 18V12L30.6667 20L21.1429 28V22H4V18H21.1429ZM6.77714 26H10.8229C12.1525 29.4382 14.5785 32.2844 17.6859 34.0519C20.7934 35.8194 24.3892 36.3982 27.8582 35.6895C31.3272 34.9807 34.4539 33.0284 36.7035 30.1665C38.953 27.3045 40.1856 23.7108 40.1905 20C40.1924 16.2853 38.9634 12.6857 36.7141 9.81844C34.4648 6.95122 31.3355 4.99511 27.8628 4.28563C24.3901 3.57614 20.7906 4.15748 17.6815 5.92995C14.5724 7.70243 12.1476 10.5556 10.8229 14H6.77714C9.20381 5.886 16.4229 0 24.9524 0C35.4724 0 44 8.954 44 20C44 31.046 35.4724 40 24.9524 40C16.4229 40 9.20381 34.114 6.77714 26Z" fill="#7F5539"/>
</svg>
